
<svg xmlns="http://www.w3.org/2000/svg" version="1.1" xmlns:xlink="http://www.w3.org/1999/xlink" preserveAspectRatio="none" x="0px" y="0px" width="750px" height="280px" viewBox="0 0 750 280">
<defs>
<g id="Layer3_0_FILL">
<path fill="#000000" stroke="none" d="
M 263.55 255
L 263.55 249 186.55 249 186.55 255 263.55 255
M 99.05 249
L 99.05 255 166.55 255 166.55 249 99.05 249
M 82.55 255
L 82.55 249 35.05 249 35.05 255 82.55 255
M 394.5 249
L 394.5 255 504.5 255 504.5 249 394.5 249
M 378 255
L 378 249 279.55 249 279.55 255 378 255
M 668.5 255
L 668.5 249 538 249 538 255 668.5 255 Z"/>
</g>

<g id="pigeon_0_Layer0_0_FILL">
<path fill="#000000" stroke="none" d="
M 507.85 25.15
Q 501.45 9.4 489.9 5.65 474.15 0.55 461.1 0.05 445.45 -0.6 436.4 5.65 426.35 12.6 417.8 26.35 408.85 40.7 405.95 55.65 403.95 65.9 400.7 87.1 397.6 105.45 393.95 115.15 387.95 131.15 379.9 151.05 367.4 169.05 358.9 182.05
L 342.4 207.55
Q 338.3 209.8 330.9 214.55 316.15 224.05 299.9 236.55 283.65 249.05 259.95 270.8 248.05 281.7 239.45 290.05 234.2 292.45 226.5 296.8 211.15 305.55 198.95 315.55 176.15 334.25 168.6 340.95 152.4 355.15 149.45 361.05 146.65 366.7 144 375.2 142.7 379.45 141.95 382.55
L 126.5 397.05
Q 122.5 400.75 107.05 408.7 90.05 417.4 85 421.05 81.2 423.85 65.2 436.35 52.25 446.5 48 449.05 44.25 451.3 35.55 455.85 27.4 460.35 22 464.55 11.15 473 8.7 475.35 2.55 481.25 5.5 483.55 8.3 485.75 21.7 486.1 28.4 486.3 34.5 486.05
L 7 508.05 6 513.05 0 520.55 15 517.55 49 508.55 97 480.05 169.5 471.05 190.75 466.05
Q 214.25 460.55 225.5 458.05 241.5 454.5 253.95 450.55 252.75 456.9 250.7 463.15 248.4 470.1 248.1 471.45 246.9 476.25 247.55 479.9 248.15 483.35 250.5 487.2 251.55 488.85 255.2 493.7 263.35 504.4 269.4 516.3 271.65 520.85 272.75 524.05 274.25 528.4 274.3 532.2 274.35 532.9 274.35 534.3 274.35 534.7 274.45 535.1 273.7 535.2 268.85 535.55 264 535.9 261.3 538.85 258.55 541.75 253.5 539.95 248.45 538.1 242.4 541.5 236.3 544.85 237.85 543.45 239.4 542.05 236.6 544.3 233.4 546.95 232.5 548.55 231.75 549.9 231.7 551.4 231.65 553 232.5 554.15 234.05 556.2 238.7 556.3 244 556.4 257.05 555.7 268.75 555.05 275.4 555.45 277.45 555.6 281.45 555.9 285 556.15 287.5 556.05 289.3 556 292 555.7 293.5 555.5 296.45 555.15 307.45 554 327.5 555.85 349.2 557.9 358.65 557.4 363.75 557.1 364.85 554.55 365.35 553.4 365.05 552.2
L 402.2 550.75 393.25 550.4 407.5 550.55 402.2 550.75 422.5 552.05
Q 424.4 550.8 425.5 549.1 427.75 545.75 424 543.55 420.25 541.35 399.5 541
L 379.5 541.05 348.5 529.55
Q 346.15 523.95 343.7 517.3 338.8 504.05 338.5 499.05 338.2 494.05 339.3 488.8
L 347.5 463.05 367 445.05 381.5 429.05
Q 394.9 420.2 410 408.95 440.25 386.45 449 374.55 449.5 373.85 460.45 359.75 467.8 350.3 472.3 343.25 485.65 322.45 488.5 301.05 494.1 259.45 484.5 198.05 481.95 181.6 482.05 168.5 482.2 156.45 480 144.55 475.7 121.25 474.4 108.5 472.45 90.4 475.5 87.05 478.3 83.95 488.7 75.7 493.9 71.55 498.5 68.05
L 514 66.55
Q 522.2 66.7 538.5 76.8
L 541.5 79.05
Q 542.55 73.7 540 66.55 539.4 65.3 537.75 63.1 534.5 58.75 529.5 54.05 524.4 49.25 517.75 44.25 512.05 40 511.9 40.15 511.05 33.05 507.85 25.15
M 280.45 492.1
Q 277.15 487.1 279.45 486.65 281.75 486.15 282.65 478.4 283 475.3 283.4 472.35 280.4 474.4 281.5 473.35 282.15 472.65 283.55 471.25 283.65 470.4 283.8 469.6 284.55 469.55 285.45 469.4
L 303 450.55 315.5 445.05 311 460.05 314.2 473.85
Q 318.55 490 324.5 501.55 330.45 513.1 334.05 522.25 335.9 526.8 336.5 529.05
L 324 532.05
Q 321 531.3 317.45 531.1 310.35 530.75 307.55 533.5 304.15 533 301.5 532.1 298.85 531.2 296.3 532.2 293.7 533.15 292.5 524.3 291.25 515.4 287.5 506.25 283.7 497.05 280.45 492.1 Z"/>
</g>

<g id="crow_0_Layer0_0_FILL">
<path fill="#000000" stroke="none" d="
M 480.15 -57.2
Q 473.85 -56.9 469.45 -56.15 457.1 -54.1 445.8 -46.6 434.3 -39 423.4 -24.7 415.55 -14.5 410.55 -4.6 409 -1.6 406.45 1.45 404.9 3.35 401.45 7.15 394.6 15.05 390.3 24.9 385.6 35.8 379.5 54.65 376.45 64.1 374.35 71.35
L 369 79.05
Q 362.95 87.6 358.8 92.1 355.55 95.75 348.5 102.75 342.3 109.25 338.55 114.85 334.75 120.6 330 126.5 327.55 129.5 325.95 131.3
L 312.05 147.95
Q 297 166.15 291.1 174.3 285.25 182.5 271.4 197.1 264.45 204.4 258.7 210.05
L 250.7 216.4
Q 241.55 223.6 235.65 228.5 232.7 230.85 227.15 234.8 223.8 237.1 216.5 242.25 202.05 252.45 193.75 260.4 186.5 267.4 174.75 280.45 163.5 293 158.55 297.6 149.55 306 147.05 308.6 143.1 312.75 140.2 317.45 136 324.2 131.7 331.45
L 140.65 329.55 133.15 344 126.4 351.05
Q 118.7 359.2 113.4 364.3 104.15 373.25 95.4 381.15 82.6 392.75 73.9 399.1 64.05 406.4 49.4 418 34.75 429.7 25.95 437.3 18.6 443.6 12.65 450.25 9.65 453.65 8.05 455.7
L 7.15 459.05 -0.9 464.2
Q -8.85 469.6 -7.9 471.15 -7 472.65 -1.25 471.6
L 4.35 470.15 -0.4 476 19.85 468.25
Q 29.6 463.05 41.7 456.2 65.9 442.6 77.65 434.4 89.45 426.3 109.15 413.8
L 126.55 402.95
Q 129.05 404.6 133.35 405.55 142.1 407.45 151.45 404.5 160.9 401.45 187.2 390.55
L 211.7 380.3 209.2 383.45
Q 206.15 387.05 203.2 389.45 200.3 391.9 198.65 394.5 197.8 395.85 197.6 396.75
L 200.8 398.65
Q 200.7 399.35 201.95 399.25 204.45 399 211.2 394.8 217.95 390.5 228.65 384
L 237.95 378.3
Q 236.6 379.4 237.4 379.75 238.8650390625 380.3361328125 249.25 376.55
L 249.25 376.5 249.45 376.5
Q 249.60859375 376.4515625 249.75 376.4 264.15 371.2 272.85 368.9 273.55 368.7 274.25 368.5 276.653515625 369.3544921875 283.1 372.2 288.488671875 374.553515625 305.6 382.15 305.5984375 383.9373046875 305.5 386.3 305.3 391.7 306.15 394.5 307.2 397.8 310.45 401.4 312.4 403.45 316.35 407.4 317.75 408.9 320.15 412.15 321.65 414 322.95 415.25 323.6 417.65 323.9 418.65 325.1 422.25 327.6 426.3 328.5 427.45 329.75 429.3 330.85 432.6 332.2 437.3 334.95 445.75 337.1 455.9 338.15 461 338.75 464.45
L 338.05 470.4
Q 335.95 471.1 334 472.1 333.85 472.2 333.6 472.3 331.85 472.4 329.6 472.6 325.3 472.95 320.15 472.1 317.65 471.65 316 471.15
L 314.9 471.6
Q 313.85 472.05 312.9 472.65 312.6 472.35 312.05 472.3 310.7 472.15 308.8 474.15 308.3 474.7 307.95 475.25 306.9 474.9 305.75 474.85 303.25 474.65 300.9 475.5 298.1 476.6 295.45 479.4 293.8 481.25 291.45 484.85 290.75 485.8 291.1 486.25 291.15 486.25 291.2 486.3 290.65 487.05 290.9 487.4 291.1 487.9 291.8 487.7 292.45 487.45 293.05 487.05 294.95 485.5 296.3 484.6 298.25 483.45 300 482.8 301.9 482.1 303.8 482.2 303.95 482.2 304.2 482.25 304.15 482.35 304.1 482.45 303.45 484.8 304 486.4 304.15 487.1 304.65 487.9 304.85 488.35 305.45 489.3 305.8 489.95 306.35 491.2 307.05 492.25 307.8 492.75 308.95 493.55 312.15 493.55 319.85 493.65 324.1 492.95 324.7 492.85 325.7 492.65 333.85 492 353.15 490.6
L 375.9 489.05
Q 377.45 490.4 379.95 491.65 384.85 494.2 389.35 493.9 392.55 493.7 399.05 491.95 404.5 490.45 409.4 490.1 410.05 490.2 410.95 490.35 412.25 490.45 413.2 490.6 413.5 490.95 414 491.25 414.7 491.85 415.9 492.35 418.75 493.65 420.75 493.9 421.8 494.05 424.15 494.05 425.3 494.05 425.55 494 426.3 494 426.95 493.9 428 493.75 429.2 493.3 430.8 492.8 432.1 492.2
L 441.75 491.95
Q 443 492.15 444.35 491.85 447.1 491.75 449.2 491.4
L 449.6 492.5 450.45 492.35
Q 450.7 491.95 450.55 491.1 450.55 491.05 450.6 491.05 454.1 490.1 455.85 487.95 457.15 486.3 457.55 483.6 460.5 482.5 462.3 482 467.75 480.7 472.55 482.55 472.95 483.05 473.4 483.65 474.8 485.75 476 486.5 476.85 487.05 477.85 487.05 478.95 487.05 479.6 486.3 480.25 485.6 480.05 484.05 479.15 477.75 473.85 473.8 471.3 471.9 468.4 471.05 466.7 469.8 465.65 469.1 462.55 467.2 459.6 466.65 454.75 465.8 448.55 468.15 448.15 468.25 447.75 468.45 444.6 468 440.9 468.35 438.35 468.65 431.25 470.2 425.05 471.5 421.45 471.65 419.6 471.6 418 471.55 417.8 471.3 417.55 471.1 416.3 469.6 415 469.1 414 468.6 412.4 468.45 411.5 468.4 409.55 468.5 406.9 468.65 405.6 468.8 403.35 469 401.55 469.4 400.95 469.55 398.35 470.5 398.15 470.35 398 470.2 386.55 462.4 381.75 453.15 379.65 448.95 377.05 439.75
L 368.45 408.4
Q 367.75 406.05 367.25 404.2 371.25 399.15 372.65 394.3 373.5451171875 391.245703125 374.1 387.55
L 387.8 375.85
Q 389.3 374.55 390.95 373.25 393.65 371.15 398.65 367.4 404.6 363.05 407.3 360.95 412.05 357.25 415.55 354.05 416.55 353.15 417.5 352.3 430.15 344.05 435.5 336.25 441.05 328.15 449.8 314.95
L 457.55 303.45
Q 463.85 295.3 471 283.2 485.5 259.05 490.5 239.1 495.45 219.15 497.5 184.6 498.15 173.8 498.3 162.85
L 498.4 154.05
Q 499.3 151.75 500 147.15 501.4 138.1 500.8 126.95 500.2 115.75 499.75 107.65
L 499.4 101.8
Q 500.55 100.6 501.85 98.35 504.25 93.75 504.6 88.25 504.8 82.6 505 78.4 505.4 70.5 505.95 64.3 507.75 45.25 511.65 37 517 25.55 522.25 15.85 526.45 8.05 529.1 4.2 530.35 3.45 531.55 2.75 540.3 -2.25 553.2 -7.55 560.55 -10.5 575.35 -16.3 588.2 -21.6 596.85 -26.55 599.2 -27.9 603.9 -30.7 608.05 -33.05 611.25 -34.25 611.1 -34.8 610.6 -35.2
L 613.15 -35.95
Q 610.35 -39.25 605.6 -42.6 596.05 -49.35 586.4 -50 576.7 -50.6 556.55 -50.6 546.55 -50.6 538.4 -50.5
L 524.35 -51.4 521.1 -52.55
Q 517.15 -53.85 513.1 -54.9 500.05 -58.3 490.9 -57.7 487.25 -57.5 480.15 -57.2
M 399.2 362.25
Q 398.9 362.45 398.6 362.65 398.8 362.5 399 362.35 399.1 362.3 399.2 362.25
M 348.6 408.7
Q 349.75 410.25 350.6 411.25 351.1 411.7 352 412.6 353.7 417.8 355.6 424.15 361.55 444.25 362 445.6 362.65 447.65 363.5 449.85 363.5 449.95 363.55 450.15 363.65 451.5 363.95 454.25 364.2 456.6 364.65 458.3 364.8 459.2 365.45 461.65 366 463.75 366.2 465 366.6 467.35 366.65 470.65 366.7 471.15 366.7 471.85 365.35 472.3 364.5 472.5 363.75 472.7 363.15 472.75 362.55 472.3 362 471.8 361.7 471.65 361.6 471.55 361.6 471.1 361.55 470.55 360.95 465.9 358.1 460.9 356.25 457.8 352.1 452.4 351.65 451.85 351.25 451.3 350.5 448.3 349.65 444.9 348.4 439.7 345.35 429.05 344.6 426 344.05 424.55 343.35 422.15 342.35 420.35 341.75 419.25 341.5 418.65 340.9 417.65 340.65 416.9 340.45 416.15 340.25 415.05
L 339.95 413.05
Q 339.65 411.35 338.8 409.4 338.75 409.2 338.4 408.4 340.8 404.85 342.95 401.3
L 348.6 408.7 Z"/>
</g>

<g id="sparrow_0_Layer1_0_FILL">
<path fill="#000000" stroke="none" d="
M 289.5 28.25
Q 289.15 27.55 288.05 26.45 285.95 24.2 282.5 22 279.05 19.8 275.95 17.7
L 273.5 16 272.25 11.25
Q 270.55 9.5 267.7 7.45 262.05 3.4 256.25 2 247.75 -0.05 241.95 0 233.8 0.1 226.5 4 218.7 8.15 214.55 11.45 210.8 14.4 206.5 19.5 203.05 23.55 200.05 31.2 198.55 35 197.75 38 196.9 39.05 195.65 40.3 193.15 42.7 191.25 43.5 177.3 49.3 168.75 54.75 163.6 58.05 154.9 65.45
L 147.25 72.25 135 81.5
Q 127 85.5 118 91.75 112.05 95.9 101.65 104.6 92.3 112.45 91.5 113.5
L 88 118.25
Q 87.5 119.15 86.3 120.4 83.85 122.95 80.25 125 75.15 127.85 72.65 129.5 69.15 131.75 66.75 134 64.55 136.05 63.55 138.35 63.05 139.5 63 140.25
L 71.35 140.05 67.75 141.8
Q 61.35 144.95 59.05 146.3 56 148.1 55.05 148.6 54.15 149.1 52.5 149.8 52.3 149.9 52.1 150
L 52.05 149.95
Q 51.8 150.1 51.55 150.25 50.5 150.7 49.95 151 47.95 152 45.85 153.55 40.85 156.45 35.05 160.05 22 168.15 15.5 172.75 10.65 176.2 6.2 181.05
L 2.75 185.25 2.5 187.75
Q 1.8 188.7 1.15 189.9 -0.15 192.25 0 193.5 0.2 194.95 1.25 194.7 1.65 194.6 2.35 194.2 2.65 194.4 3 194.5 5.15 195.15 8.9 193.45 21.05 188.05 45.5 174.15 52.2 170.35 58.05 167.2
L 73 164.5
Q 80 163.25 91 162
L 98.25 162.3
Q 106.5 162.45 111.5 162 119.5 161.25 132 161.25
L 135.75 164.75 138.4 166.15 148.75 166.15 150.35 167 156.35 169 160.35 177.5 168.35 181.75 176.9 187.65 177.75 188.6
Q 180.5 191.75 182.3 194.3 180.05 193.9 177.35 193.5 177.3 193.2 176.5 193.05 174.85 192.7 171.1 193.5 168.65 194 166.3 193.9 165.4 193.85 163.6 195.25 161.55 196.8 159.75 199.8
L 158.35 202.5 160.8 200.15
Q 163.55 197.7 165.1 197.25 166.65 196.8 167.8 197.7 168.35 198.2 168.6 198.75
L 169.7 200.2
Q 170.85 201.3 172.2 201.3 171 202.25 169.8 203.45
L 167.6 206 169.75 204.65
Q 172.35 203.25 174.85 203.25 177.35 203.25 178.6 204.5 179.25 205.15 179.35 205.75
L 182.85 205.45
Q 187.1 205.15 190.85 205 193.85 204.9 201.7 205.25 209.5 205.65 212.35 205.5 215.85 205.35 219.8 205.4 221.9 205.45 225.35 205.5 227 205.5 228.3 205.2 229.3 205.1 231.1 206 234.1 207.5 235.1 209 234.85 207.8 234.15 206.4 232.7 203.6 230.35 202.5 228 201.4 226.2 200.2
L 224.85 199.25 222.7 199.45
Q 222.65 199.4 222.65 199.35 221.8 197.2 220.4 196.15 218.85 194.9 216.35 194.75 214.65 194.65 212 195
L 207.05 195.6
Q 204.5 195.85 203.35 195.85 200.05 193.8 197.6 192.5 195.25 191.25 184.2 183.25
L 173.6 175.5 175.35 169 175.35 166.5 176.3 166.15 165.95 166.15 173.75 163.25
Q 184.15 159.15 192.25 154.75 207.3 146.65 212.9 143.05 224.9 135.35 232.7 128.45 240.5 121.5 247.6 110.2 249.9 107.9 253.25 98.6 256.55 89.3 257.4 85.6 259.9 68.25 260.25 64.25 260.75 58.75 261.85 55.85 262.5 54.15 265.5 48.75 269 42.5 271.25 36.25
L 273.25 35.8
Q 275.9 35.05 279 33.5 284 31 287.75 29.25 289.25 28.3 289.5 28.25
M 205.65 197.35
Q 205.6 197.3 205.55 197.25 205.6 197.25 205.65 197.25 205.65 197.3 205.65 197.35 Z"/>
</g>

<g id="sparrow_0_Layer0_0_FILL">
<path fill="#000000" stroke="none" d="
M 177.95 196.4
Q 175.45 194.4 171.95 193.45 169.7 192.85 167.9 193.05 166.65 193.2 164.55 193.9 162.25 194.7 161.2 194.9 159.85 195.1 158.15 195.1
L 157.4 195.1
Q 154.73984375 194.8783203125 154.1 194.75 153.8318359375 194.156640625 153.3 193.4 147.8283203125 186.2234375 143.4 178.35 143.3091796875 175.09296875 143.9 171.6 146.368359375 170.161328125 149.85 167.55 151.1 166.65 151.55 165.95 152.4 164.75 151.95 163.7 151.5 162.95 151.45 162.5 151.45 162.25 151.95 161 152.35 160.05 151.9 159 151.45 157.95 150.45 157.55 149.45 157.2 148.45 157.65 147.4 158.1 147 159.05 146.4 157.35 145.75 156.8 145.3 156.35 144.6 156.2 143.9 156.05 143.4 156.4 143.05 156.6 142.45 157.15 142.2 157.3 141.9 157.3 141.55 157.25 141.45 156.95 141.35 156.75 141.7 155.95 142.2 155.15 142 154.15 141.8 153.15 141.05 152.55 140.35 151.95 139.3 151.95 138.25 151.95 137.55 152.6 136.7 153.4 136.3 155.5 135.85 157.85 135.3 158.65 134.95 157.8 133.9 157.5 132.85 157.2 132 157.65 131.15 158.1 130.7 159.05 130.3 159.95 130.4 160.95 128.45 158.65 127.2 156.1 126.45 154.55 125.85 153.85 124.95 152.75 123.8 152.7 122.8 152.65 122 153.5 121.3 154.2 120.95 155.3 120.9353515625 155.3517578125 120.9 155.4 119.713671875 155.1244140625 118.7 156.05 118.2 156.55 118.05 157.25 117.9 157.95 118.1 158.6 118.25 159.1 119.6 160.7 120.55 161.85 121.6 164.25 122.75 167.05 123.35 167.95 123.65 168.4 125.25 170.4 128.2 173.95 130.7 177.4
L 134.3 182.6
Q 136.05 185.05 137.2 186.9 137.866015625 187.9576171875 139 189.8 139.3787109375 191.41484375 139.9 193.05 140.0703125 193.5271484375 140.25 193.9 138.464453125 194.49296875 137.05 195.6 136.65 196 135.8 196.75 135 197.35 134.35 197.6 133.45 197.9 132.15 197.8 130.65 197.65 129.9 197.55 126.608984375 197.138671875 123.45 198.35 122.7236328125 198.229296875 121.95 198.15 119.6 197.95 118.4 198.5 117.6 198.8 116.35 199.95 114.5 201.5 114.2 202.7 114.1 203.25 114.3 203.75 114.5 204.3 114.95 204.35 115.45 204.4 116.15 203.6 117.5234375 202.179296875 119.45 201.6 119.123828125 202.60546875 119.55 203.6 119.95 204.4 120.9 204.8 121.75 205.15 122.75 205.05 123.464453125 204.9525390625 124.7 204.45 126.5125 206.833203125 131.3 205.95 132.7013671875 205.702734375 136.45 204.55 138.637890625 204.367578125 140.6 204.1 140.69296875 204.096484375 140.8 204.1
L 156.65 204.5
Q 159.3 204.5 161.9 204.65 168.25 205 178.3 206.75 180.8 207.15 182.05 206.95 184.3 206.5 184.85 204.65 185.05 203.8 184.7 202.85 184.3 201.95 183.6 201.3 182.55 200.35 180.25 199.6 179.95 197.9 177.95 196.4
M 182.35 156.05
Q 182.45 155.75 182.35 155.4 182.25 155.05 181.95 154.9 181.65 154.75 181.2 155 180.65 155.35 180.4 155.5 180 155.8 179 156.15 178 156.45 177.6 156.8 177.15 157.2 176.45 158.8 175.728515625 160.5921875 174.75 162.35 173.99921875 160.8068359375 172.9 159.75 172.2 159.1 171.4 158.9 170.5 158.65 169.85 159.15 169.35 159.55 169.2 160.6 168.95 162.2 168.9 162.3 168.25 162.85 167.05 163.25 165.65 163.65 165 163.9 163.9 164.3 163.15 165.1 162.35 166 162.5 167 162.8 168.85 166.25 169.4 170.0728515625 170.0166015625 172 168.95 172.478125 169.451953125 173.15 169.5 173.4501953125 170.7876953125 173.55 172.85 173.7 175.85 174.4 177.2 174.7 177.8 175.25 178.05 175.9 178.35 176.25 177.95 175.9 176.5 176.1 174.3 176.45 170.85 176.45 170.65 176.5 169.3 176.25 167.55
L 176.25 167.5
Q 176.553125 166.9935546875 176.9 166.3
L 179.85 160.25
Q 180.85 158.2 181.65 157.15 182.25 156.45 182.35 156.05 Z"/>
</g>

<g id="duck_0_Layer0_0_FILL">
<path fill="#000000" stroke="none" d="
M 523.35 36.55
Q 514.35 23.3 507.45 17.65 498.15 10.05 484.5 4.95 468.75 -0.9 455.5 0.15 449.85 0.6 444.15 0.45 437.1453125 0.2484375 433 2.4 428.9140625 4.6046875 420.1 9.35 411.2859375 14.1453125 406.05 19.45 400.8494140625 24.7509765625 395.8 46.15 390.7603515625 67.5470703125 390.2 85.45 389.641015625 103.35625 392.85 123.75 396.055078125 144.1904296875 407.6 169.8 419.1466796875 195.40859375 412.45 208.9 405.760546875 222.4130859375 386.45 225.05 352.5 222.4 318.2 225.5 312.444921875 225.8115234375 308.55 226.1 284.3 227.95 272.5 231.55 261.25 235 246.5 241.1
L 234 246.55
Q 228 247.7 220.25 249.5 204.75 253.1 196 256.55 192.8810546875 257.7693359375 184.25 260.5
L 195.9 260.5 195.9 468.3
Q 200.8005859375 469.94296875 204 470.55 214 472.45 231.75 472.95 240.65 473.2 247.5 473.05
L 248.95 475
Q 250.3 478.35 250 485.55 249.75 491.3 249.4 503.95 248.7 514.65 246.5 520.05 241.55 532.1 244 546.05 244.95 551.35 248.55 557 250.4 559.8 252 561.55
L 251.4 565.1
Q 251.4 569 254.5 570.55 257.6 572.1 283.85 576.25 296.95 578.3 309.45 580.05
L 311.6 578.2
Q 314.85 576.2 320.45 575.55 326.1 574.95 339.85 575.7 346.7 576.05 352.45 576.55
L 354.15 576.45
Q 356 575.95 356.95 574.05
L 358.45 571.05 363.45 575.05
Q 364.45 573.8 364.65 572.25 364.8494140625 570.4546875 363.6 569.15
L 367.95 569.05 381.75 567.45
Q 396.65 565.95 401.95 566.55 410.45 567.55 417.95 568.05
L 423.95 565.55 426.9 566
Q 430 566.6 430.95 567.55 432.45 569.05 424.45 558.55
L 420.45 554.55
Q 420.4 554.25 420.3 554 419.8552734375 552.7056640625 414.55 552.45 409.28359375 552.1828125 404.15 553.35 399.0216796875 554.5228515625 388.6 553.65
L 376.6 552
Q 369.85 551.4490234375 365.15 552.25 360.4998046875 553.05234375 356.8 551.65 353.15 550.2974609375 349.15 548.55 345.1498046875 546.85078125 339.5 541.75
L 334.95 537.05
Q 334.5 533.8 332.3 521.95 332.15 521.05 331.95 520.05 331.65 518.3 331.35 516.3 330.85 512.5 330.5 491.85
L 330.05 492.25
Q 330.0322265625 491.13828125 330 490
L 329.95 477.55 333.95 460.05 342.4 458.55
Q 351.5 456.55 354.95 454.05 358.4 451.55 365.75 448.05 369.45 446.3 372.45 445.05
L 387.7 438.5
Q 405.2 431.1 416.45 427.05 441.85 417.9 466.95 399.05 480.1 389.2 490.85 375.85 503.1 360.6 509.45 344.05 517.85 322.1 520.7 308.35 524.85 288.45 521.45 271.55 517.85 253.5 508.45 230.15 499.65 208.3 489.45 190.65 478.2513671875 171.29921875 473.15 160.3 468.0958984375 149.3494140625 465.6 140.95 463.109375 132.6126953125 461.95 130.95 460.78359375 129.278515625 460.25 117.7 459.7099609375 106.16796875 468.55 98.25 477.3919921875 90.3900390625 483.65 89.5 489.9537109375 88.65234375 503.65 87.15
L 520 91.95
Q 541.6791015625 97.0994140625 548.5 98 555.321875 98.9037109375 568.85 102.25 582.380078125 105.5919921875 585.75 105 589.3771484375 102.062890625 588.85 99.6 587.901953125 94.951171875 576.25 88.85
L 565.95 83.65
Q 564.35 81.3 561.25 77.7 555.15 70.6 547.95 64.65 540.75 58.7 535.15 53.1
L 530.95 48.65
Q 527.85 43.15 523.35 36.55
M 272.75 475
Q 274.95 471.2 276.95 468.55 276.65 467.95 292.75 465.95 300.85 464.95 308.95 464.05
L 312.3 495.25 308.95 525.05
Q 307.1 528.2 305 531.7 300.9 538.7 299.95 540.55 299 542.45 299.15 545.7 299.2 547.3 299.45 548.55
L 301.35 548
Q 303.6 546.85 305.45 544.05 308.05 540.15 309.9 538.15 310.2 537.8 310.45 537.55
L 311.75 545.7
Q 312.7 550.8 313.65 554 314.28046875 556.1822265625 314.9 557.45 310.7689453125 557.127734375 299.6 555.3
L 286.45 553.05 268.95 544.05
Q 269.45 543.2 269.9 541.35 270.75 537.75 270.45 533.05 270.15 528.35 268.5 523
L 266.95 518.55
Q 266.7 513.45 266.65 507.1 266.5 494.5 267.45 488.55 268.4 482.6 272.75 475
M 317.2 561.35
Q 317.5927734375 561.9392578125 318 562.55
L 317.2 562.55 317.2 561.35 Z"/>
</g>

<g id="duck_0_Layer0_1_FILL">
<path fill="#000000" stroke="none" d="
M 89.65 281.2
Q 86 281.6 84.25 281.9 80.3 282.55 77.3 283.8 74.9 284.85 72.2 286.65 70.45 287.85 67.45 290.15 66.3 291.05 65.7 291.75 64.85 292.75 64.65 293.7 64.5 294.9 65.45 295.85 65.95 296.3 66.4 296.4 65.2 296.75 64.15 297.1 62.65 297.6 61.8 298.05 60.55 298.65 59.9 299.55 59.1 300.5 59 301.8 58.95 303.15 59.8 304 60.55 304.65 62.4 304.95 68.25 305.95 74.05 306.25 77.3 306.8 77.85 306.9 79.7 307.2 83.35 307.55
L 102.05 309.4
Q 102.6 309.45 103.15 309.6 98.8 311.55 95.55 313.7 94 314.75 92.05 316.3 89.8 318 88.8 318.95 87.3 320.55 86.55 321.3 85.05 322.7 84.8 322.95 82.85 325.05 82 327.6 81.25 329.95 81.85 331.65 82.35 333.2 84.65 335.05 88.5 338.1 92.5 340
L 78.05 341.5
Q 72.05 342.1 68.65 342.8 67.3 343.1 64.8 343.75 62.05 344.5 60.9 344.75 57.9 345.45 54.1 345.9 52.4 346.05 47.2 346.55 27.5 348.6 7.5 352.55 5.7 352.95 4.5 353.7 3 354.7 3.15 356.1 3.4 358 6.45 358.95 9.45 359.9 13.3 360.75 15.7 361.2 20.2 362 27.2 363.1 32.85 363.95 26.1 363.6 22.05 363.55 13.35 363.45 6.45 364.2 4.8 364.35 3.85 364.75 2.5 365.25 1.9 366.25 1.45 367.1 1.55 368.1 1.6 369.1 2.1 369.95 2.9 371.2 4.9 372.6 9.15 375.6 15.5 378.3 17.25 378.95 26.8 382.5 30.1 383.7 40.1 387.7 48.4 390.95 53.45 392.7 65.35 396.75 75.15 397.9 73.9 398.4 73.4 399.45 72.6 401.25 74.6 403.95 77.65 407.9 82.6 411 86.35 413.4 92.3 415.85 98.85 418.65 105.8 420.85 108.6 421.75 114.15 423.35
L 114.55 423.5
Q 114.4 423.75 114.35 424.1 114.1 425.45 115.7 427.4 129 443.9 152.75 453.65 161.7982421875 457.396484375 182.9 464.55 204.055078125 471.710546875 211 470.35 217.9447265625 468.989453125 214.05 459.85 210.2015625 450.703515625 221.3 446.75 246.6 437.85 265.75 427.45 279.95 419.7 290.15 411.25 302.3 401.25 309.6 389.7 318.05 376.35 321.45 358.85 324.45 343.5 323.5 325.4 322.55 307.3 317.7 293.2 312 276.5 301.05 265.9 297.65 262.6 291.35 257.85 283.55 252.05 281.3 250.15 278.8 247.85 276.7 246.05 268.45 245.9 255.6 245.25 235.55 249.85 185.8 258.85 180.4 260.85 177.85 261.9 173.4 263.75 170 265.45 165.4 267.8 157.05 273.2 156.15 273.85 155.2 274.4 153.75 274.5 152.25 274.6 135.8 275.6 127.6 276.15 105.45 277.75 89.65 281.2 Z"/>
</g>

<g id="goose_0_Layer1_0_FILL">
<path fill="#000000" stroke="none" d="
M 344.85 35.9
Q 337.35 31.1 330.55 28.15 319.25 23.4 306.8 22.7 295.55 22.05 280.3 35.8 275.5 40.15 268.05 58.8 267.8 59.55 267.55 60.35 267.2 60.8 266.85 61.4 265.3 63.8 260.05 75.45 254.75 87.1 251.35 101.5 247.95 115.85 248 128.65 248 141.4 249.7 149.4 251.3 157.4 253.55 164.75 255.75 172.1 260.8 185.7 275.35 224.4 271.9 239.3 267.75 238.3 258.8 241.9 249.9 245.55 244.2 248.95 240.9 250.95 238.6 251.95
L 232.7 252.1
Q 228.5 252.3 214.8 255.2 201.05 258.1 194.85 260.55 188.6 263.05 173.1 269.55 159.6 275.7 153.75 280.4 147.65 285.25 137.1 289.8 131.8 292.05 127.7 293.35
L 119.9 288.15
Q 110.7 282.5 104.05 279.9 97.45 277.3 92 276.5 89.35 276.1 88 276.2
L 87.5 275.85
Q 86.9 275.35 86.1 275 83.4 273.85 79.65 274.15 75.85 274.45 71.45 272.8 69.35 272 67.85 271.05
L 66.95 271.65
Q 65.8 272.35 65.05 273.25 62.5 276.1 64.35 279.35 66.05 282.4 68.75 284.9 72.6 288.55 73.55 289.7 75.75 292.3 79.4 294.9
L 82.6 297 69.45 297 63.95 299.1 71.3 303.2 67.5 305.8 79.3 311 86.6 316.2
Q 87.8 317.65 89.35 320.25 92.4 325.6 94.4 331.75 95.35 334.95 96.1 339.3 96.15 339.45 97.3 347.15 98.9 357.1 101.6 362.9 104.55 369.35 106.7 375.4 107.75 378.3 108.25 380
L 108.1 382.65
Q 108.05 386.05 108.4 389.3 109.45 399.8 114.1 406 118.8 412.1 128.7 421.85 129.35 422.5 130.05 423.15 134.85 432.65 145.9 441.45
L 156 448.6
Q 161.6 450.6 165.45 451.65
L 165.45 453.05
Q 165.5 457.35 165.5 460.9 165.5 468.75 165.2 473.7 165.2 474.75 165.1 475.85 165 475.95 164.85 476.1 164.8 476.15 164.8 476.25 160.9 480.85 158.65 484.95 155.4 491.15 155.7 496.35 155.75 497.8 156.5 498.2 156.9 498.55 157.5 498.45 158.05 498.35 158.5 497.95 159 497.5 159.7 496.2 161 493.5 162.7 491.15 162.6 491.7 162.5 492.25 161.75 495.75 161.05 498.75 160.75 500.15 160.45 501.45 160.3 501.85 160.2 502.2
L 157.5 514.15 153.2 518.85
Q 151.15 521.1 150.4 522.65 150 523.7 149.8 525.05 149.7 525.85 149.6 527.55 149.55 528.9 149.65 529.55 149.8 530.65 150.35 531.35 151.15 532.35 152.75 532.5 153.85 532.65 155.6 532.45 157.35 533.4 160.8 533.4 162.1 532.8 163.55 532.35 166.2 532.2 169.75 531.9
L 182.85 530.75
Q 191.35 530 195.65 529.95 197.45 529.95 199 529.95 204.65 531.3 209.25 531.3 215.45 531.3 221.8 531.05
L 226.85 530.75 222.7 526.2
Q 228.35 524.25 234.05 522.1 235.4 522.25 236.8 522.5 236.85 522.5 236.95 522.55 238.35 523.55 242.65 522.6
L 251.5 524.65
Q 254.15 524.15 254.4 524 254.6 523.9 266.4 524.6 278.25 525.15 293.45 527.1
L 294.6 525.7
Q 294.4 524.75 292.85 522.65 291.2 520.55 298.9 520.5 306.7 520.5 319.05 519.55
L 326.25 517.9 302.8 510.6 281.55 505.25
Q 276.15 504.9 269.65 504.6 265.25 498.85 264.45 490.8 263.45 482.75 263.1 476.8
L 262.9 472.75 263.65 466.85
Q 263.85 466.5 264 466.15 264.4 465.55 264.55 464.55 264.65 463.45 264.75 462.9 264.9 461.8 265.55 459.65 266.15 457.45 266.25 456.4 266.4 455.45 266.65 453.15 266.8 451.05 267.05 449.85 267.2 449.1 267.65 447.75 268.05 446.3 268.2 445.65 268.25 445.55 269.55 436.6
L 268.9 436.6 268.9 436.5
Q 269.95 435.95 271.4 435.15 279.3 430.9 283.15 428.4 289.45 424.45 293.8 420.2 295.45 418.6 297.4 416.3 297.75 415.9 298.3 415.25 313.05 407.1 319.6 399.2 324.05 393.8 329.2 389.05 334.8 384.2 337.2 382.05 341.3 378.25 343.85 374.9 347.15 370.55 349.8 364.4 355.55 351.05 355.85 350.45 359.3 341.95 361 335.1 365.4 316.45 359.1 300.6 353.35 286.35 340.3 261.6 339.9 259.7 339.6 257.65 336.5 238.8 332.25 228.15 329.05 220.2 321.45 207.45 312.75 192.9 308.5 186.45 304.15 179.9 300.25 172.85 296.25 165.7 294.35 160.55 292.45 155.35 290.3 143.75 288.15 132.15 290.7 123.6 293.15 115 294.75 107.35 296.4 99.7 301.95 92.1 307.55 84.5 311.65 83.2 316.7 83.55 320.35 83 329.4 81.75 335.7 80 346.4 77.2 346.65 76.55
L 349.65 76.35
Q 353.55 75.85 358.25 74.6 363.7 73.15 365 72.85 365.9 72.7 370.35 72.05 376.05 71.15 382.45 72.3
L 386.1 71.45 389.35 72.05
Q 389.65 72 389.9 71.2 390.45 69.8 390.05 66.55 389.65 63.15 385.25 60.45 383.25 59.05 376.1 56 371.15 53.8 367.6 51.85 363.9 49.75 359.65 46.8 356.1 44.25 350.15 39.9
L 344.85 35.9
M 245 444.05
Q 245.65 444.2 246.3 444.3 246.35 444.9 246.4 445.35 246.45 445.65 246.65 446.2 247.05 447.5 247.95 449.7 249.2 452.5 249.3 454.1 249.4 454.85 249.4 456.4 249.4 457.85 249.55 458.65 249.6 459.25 250 460.35 250 460.65 250 460.85 250.4 469.7 250.4 473.95 250.4 475.5 250.35 476.4 250.25 478.5 248.85 480.3 247.9 481.5 244.85 491.2 244.6 491.85 244.35 492.55 244.6 492.6 244.8 492.7 245.6 492.9 246.4 492.95
L 250.4 490.95
Q 251.2 506.5 243.55 510.1 240.75 513.2 239.05 515.5 238.65 515.4 238.2 515.25 231.55 513.3 223.65 512.7
L 223.5 512.6 196.85 510.4
Q 196.25 510.35 195.6 510.2 188.9 508.8 184.85 507.1 183.25 506.45 182.95 506.35 182.45 506.15 182 506.05 180.9 503.1 179.45 498.8
L 179.45 498.75
Q 175.3 487.1 176.95 481.8 177.95 478.9 178.45 477.45 178.65 476.8 178.8 476.25 179.35 474.3 179.6 472.7 180.05 468.75 182.35 460.9 182.6 460.2 182.8 459.5
L 184.45 454.35 184.45 450.2
Q 187.35 450.25 190.85 450.25
L 201.05 450.25
Q 209.25 449.3 223.45 445.9
L 233.85 443.15
Q 236.2 443.35 237.8 443.25 239.25 443.15 240.75 442.85 241 442.95 241.4 443 243.8 443.75 245 444.05
M 183.5 516.45
Q 183.8 516.55 184.1 516.65
L 184.65 522
Q 183.95 518.85 183.5 516.45 Z"/>
</g>

<g id="myna_0_Layer1_0_FILL">
<path fill="#000000" stroke="none" d="
M 231.9 15.7
Q 231.1 13.95 228.45 12.15 225.65 10.3 219.2 8.55
L 209.7 7.55
Q 207.55 5.3 204.15 4.3 200.7 3.25 201 3.5 201.3 3.75 197.2 2.1
L 191.2 0.05
Q 188 -0.05 183.9 0.1 175.75 0.4 171.2 1.8 163.45 4.2 159.9 5.95 153.5 9.1 149.7 14.05 146.1 18.75 142.9 26.6 141.35 30.55 140.45 33.55
L 136.7 48.05
Q 129.2 51.55 122.45 56.3 117.05 60.1 110.65 66.6 103.7 73.65 98.7 80.8 94.35 87.05 86.95 100.05 83.25 106.55 80.45 111.8
L 75.45 119.05 71.5 122.95
Q 67 127.55 64.2 131.3 61.4 135.05 56 145.8 53.35 151.2 51.2 155.8 41.7 174.3 40.45 175.3 39.8 175.85 33.25 184.25 24.95 194.85 21.7 198.8 16.4 205.25 9.15 215.25 1.9 225.35 0.95 227.55 -0.05 229.95 0 230 0.15 230.25 3.2 230.05 6.3 229.85 8.15 228.85 9.8 227.95 12.7 225.05 15.05 222.7 21.85 217.9
L 28.2 213.55 38.7 208.3 38.2 210.8 43.2 209.8 49.2 204.8
Q 56.7 199.55 65.7 193.8 71.35 190.2 79.7 185.25
L 86.95 181.05 88 180.95 88.95 183.5
Q 89.9 186.95 89.25 189.3 88.55 191.95 88.9 193.9 89.15 195.45 90.6 198.3 92.35 201.8 96.15 206.3 105.55 224.55 105.7 226.3 105.9 228.65 105.9 229 106.05 229.95 106.45 230.85 105.55 231.3 104.25 231.55 102.5 231.8 101.65 231.95 100.1 232.3 98.2 233.15
L 97.25 233.6 96.75 233.95
Q 95.65 233.75 95.05 233.65 93.35 233.35 91.6 233.8 89.75 234.3 88.4 235.55
L 88.35 235.6
Q 87.1 235.4 85.95 235.95 85.55 236.1 84.7 236.75 82.4 238.15 81.5 240.8 81.45 241.15 81.5 241.2 81.65 241.4 82.05 241.2
L 82.45 240.75
Q 83.5 239.3 84.8 238.55 85.8 237.95 86.95 237.9 86.9 238.15 86.9 238.4 87.05 239.55 88.1 240.1 89.1 240.55 90.4 240.45 91.65 240.4 93.45 240.05 94.5 239.8 96.55 239.3 99.9 238.6 106.6 238.3
L 114.5 238
Q 115.35 238.15 116.45 238.25 117.7287109375 238.3607421875 118.85 238.45 122.2892578125 238.724609375 124.25 238.8 128.6 239 132.15 238.7 134.3 238.55 138.65 238.1 142.35 237.85 144.8 238.55 145.65 238.8 147.3 239.3 148.8 239.6 149.95 239.2 151.1 238.75 152.25 237.5 153.3 237.2 154 237.2 155.75 237.2 156.4 238.4 156.55 238.8 156.65 238.85 156.95 239.1 157.15 238.95 157.3 238.85 157.35 238.8 157.4 238.7 157.5 238.65 157.8 238.35 157.6 237.75 157.0931640625 235.676953125 156.1 234.75 158.23046875 234.584765625 161.95 234.2 165.65 233.95 168.1 234.65 168.95 234.9 170.6 235.4 172.1 235.7 173.25 235.3 174.4 234.85 175.55 233.6 176.6 233.3 177.3 233.3 179.05 233.3 179.7 234.5 179.85 234.9 179.95 234.95 180.25 235.2 180.45 235.05 180.6 234.95 180.65 234.9 180.7 234.8 180.8 234.75 181.1 234.45 180.9 233.85 180.35 231.6 179.25 230.7 178.4 230 177.05 229.85 177 229.2 176.65 228.55 176.1 227.5 175 226.9 172.55 225.55 168.3 226.45 167.25 226.65 164.75 227.3 162.5 227.9 161.25 228.1 158.7318359375 228.477734375 156.25 228.2 153.8578125 227.99375 151.5 227.15 145.2984375 227.0140625 134.55 215.9
L 142.15 225.15 142.15 231
Q 141.815625 231.1048828125 141.45 231.2 139.2 231.8 137.95 232 132.95 232.75 128.2 231.05 127.2890625 229.9783203125 126.25 229.05 125.374609375 228.24609375 124.4 227.55 120.35 224.65 118.05 222.5 114.85 219.55 112.4 215.8 110.2 212.35 106.4 204.5
L 103.05 197.3
Q 104 196.3 105.1 194.85 107.2 191.9 107.7 189.55
L 109.85 180.45 115.9 180.45 115.95 179.05 121.65 176.7
Q 128.4 173.9 133.7 171.55 140.65 168.5 154.75 157.4 169.75 145.6 174.7 138.55 179.1 132.3 183.75 119.95 188.2 107.2 189.45 103.8
L 193.2 93.55
Q 194.65 91.1 196.15 87.7 199.15 80.8 199.45 75.8 200.15 64.45 198.7 52.3 198.25 48.4 197.8 42.95
L 197.7 42.05
Q 196.8 33.85 205.7 22.55
L 208.4 20.15
Q 215.55 18.25 219.25 17.75 222.95 17.2 227.75 16.35 231.35 15.65 231.9 15.7
M 149.1 236.85
Q 149.05 236.9 149.05 236.95 148.85 236.95 148.6 236.95
L 149.25 236.75
Q 149.15 236.8 149.1 236.85
M 172.55 232.85
Q 172.45 232.9 172.4 232.95 172.35 233 172.35 233.05 172.15 233.05 171.9 233.05
L 172.55 232.85
M 156.25 225.3
Q 156.2994140625 225.3138671875 156.25 225.15
L 155.8 225.15
Q 156 225.25 156.25 225.3 Z"/>
</g>

<g id="myna_0_Layer0_0_FILL">
<path fill="#000000" stroke="none" d="
M 119.45 174.9
Q 118.6 175.65 117.4 177.15 116.05 178.95 115.5 179.5 115.25 178.85 115.35 177.5 115.45 176.1 115.2 175.5 115 175 114.6 174.65 114.1 174.35 113.65 174.4 113.3 174.45 112.9 174.7 112.65 174.8 112.15 175.1 111.45 175.3 111.15 175.4 110.55 175.6 110.35 175.95 110.15 176.5 109.95 176.55 109.8 176.65 109.3 176.5 108.4 176.25 107.5 176.7 106.6 177.2 106.45 178.1 106.3 178.85 106.8 180.15 108.35 183.95 110.65 188 111.5435546875 189.5265625 112.35 190.2 112.58984375 190.68984375 112.9 191.25 114.4 193.7 116.55 197.85
L 124.8 213.85
Q 127.1119140625 218.27578125 128.4 221.35
L 128.65 223.3
Q 128.95 225.7 128.7 226.85 128.05 229.55 125.5 230.65 124.2 231.2 124 231.3 123.4 231.7 123.2 232.3 122.95 233 123.2 233.6 123.6 234.55 124.8 234.75 125.5 234.9 126.9 234.6
L 133.05 232.75
Q 133.45 233.65 134.95 233.65 136.2 233.65 137.95 233.15 140.85 232.3 140.9 232.3 142.95 231.75 143.45 231.3
L 144.35 230.25
Q 145.15 229.65 145.5 229.25 146 228.7 145.95 227.9 145.95 227.1 145.35 226.65 144.99296875 226.3580078125 144.35 226.25 144.4015625 226.1888671875 144.45 226.1 144.35 225.9 144 225.65 143.6 225.4 143.5 225.3
L 143.45 225.2
Q 143.1859375 224.451171875 142.35 223.5 139.608984375 220.24609375 137.35 217.4
L 131.6 208.8
Q 130.35 206.9 128.75 204.7 127.9248046875 203.58203125 127.15 202.65 123.608203125 196.061328125 121.35 188.95 121.7466796875 188.6533203125 122.2 188.2 124.6 185.9 125.6 184.55 126.95 182.65 127.3 180.95 127.45 179.65 127.7 179.1 127.85 178.7 128.3 178.15 128.85 177.4 129 177.2 129.2 176.8 129.45 176.1 129.75 175.25 129.9 174.95 130.5 173.65 130.5 173.3 130.5 173.0294921875 130.35 172.8 130.411328125 172.8 130.45 172.8 130.85 172.7 131 172.5 131.1 172.4 131.3 171.85
L 131.65 170.95
Q 131.85 170.65 131.8 170.5
L 131.75 170.25
Q 131.7 170.15 131.8 169.95
L 132 169.45
Q 132.1 169.15 132.05 168.95 131.95 168.8 131.6 168.7 131.1 168.7 130.85 169.15 130.7 169.4 130.6 169.95 130.55 170.05 130.15 170.6 129.95 170.95 129.85 171.65 129.784375 172.0439453125 129.8 172.25 129.6208984375 172.2171875 129.4 172.3 129.1 172.45 128.95 172.95 128.85 173.2 128.7 173.75
L 128.25 173.85
Q 127.9 172.65 126.75 172.25 125.65 171.85 124.6 172.55 124.55 172.6 124 173.1 123.65 173.45 123.35 173.55 123.1 173.65 122.7 173.65 122.3 173.7 122.05 173.7 120.8 173.85 119.45 174.9 Z"/>
</g>

<g id="pashosh_0_Layer1_0_FILL">
<path fill="#000000" stroke="none" d="
M 111.85 259.55
L 121.35 266.8
Q 122.5 275.15 125.25 277.75 128.1 288.85 129.7 294.2 131.25 299.45 132.65 307.2 134.1 314.95 135 318.95
L 135.95 323.75
Q 136.25 324.3 135.4 325.05 134.55 325.8 130.35 326 126.2 326.1 125.1 326.85 124.1 327.45 122.05 329.25 120.3 330.95 119.85 331.95 119.5 332.75 119.65 333.55 119.8 334.45 119.95 332.85 120.15 331.2 121 332.95 121.85 334.65 126.5 333.2 131.05 331.8 137.1 331.15 143.3 330.4 147.85 330.8 152.5 331.15 164.45 332.95 169.25 333.65 171.75 334.1 172.15 333.8 172.6 333.45 173.4 332.7 173.65 331.7 173.65 331.6 173.7 331.5
L 173.1 331.5 173.1 329.55
Q 172.65 328.9 171.7 328.35 170 327.25 168.9 327.2 167.8 327.15 161.7 327.9 155.6 328.65 145.9 324.9 145.9 324.75 146.05 324.65 146.35 324.55 144.55 321.35 142.8 318.15 139.85 312.25 136.95 306.25 135.05 296.15 133.2 286.05 134.55 276.55 134.95 276.2 135.3 275.8 136.15 274.85 137.15 273.5 147.75 274.35 157.05 273.45 159.2 273.25 161.65 272.7 163.9 272.65 166.1 272.4 167 273.95 167.95 275.35 168.8 275.65 169.7 276 168.8 275.7 168 275.4 168.85 276.85 169.95 278.2 171.15 279.75 172.2 280.4 172.45 280.95 172.8 281.5 175.2 285.65 178.6 294.05
L 180.4 298.6
Q 182.75 304.6 184.55 310.4 186.2 315.5 187.35 320.45 187.6 321.35 187.8 322.2 187.75 322.3 187.75 322.35 183.65 323.1 179.7 322.75 177.65 322.5 176.65 322.55 174.8 322.75 173.7 323.8 172.7 324.95 172.85 326.45 173 327.95 174.2 328.5 174.95 328.8 175.95 328.7 176.3 328.65 177.8 328.4 179.7 328.05 183.3 328
L 193.25 327.75
Q 199.55 327.7 201.1 327.65 205.5 327.65 206.3 327.4 207.25 327.15 211.9 327.5 216.45 327.85 218.75 327.6 221.1 327.4 221.5 326.85 223.7 326.75 225.75 327.55 226.7 328 227.1 327.85 227.7 327.75 228.1 327.1 228.45 326.55 228.3 325.9 228.15 325.25 227.2 324.4 226.15 323.5 225.75 323.15 225 322.75 224 322.5 223.55 322.4 223.2 322.3 222.45 322.1 221.5 322 220.25 320.55 217.3 319.9 213.75 319.25 209.45 319.9 208.75 319.95 202.9 321 202.25 321.1 201.6 321.25 198.5 321.8 196.4 321.75
L 195.55 321.7 190.55 310.85
Q 190.5 310.8 190.5 310.75 186.9 303.25 185.2 298.85 183.2 293.85 181.85 289.35
L 178.8 278.55
Q 179.2 278 179.55 277.4 179.95 276.6 180.6 275.05
L 181.4 272.95
Q 181.8 271.8 182 271.25
L 182.35 270.05 185.7 267.85
Q 193.3 263.05 198.2 259.55
L 111.85 259.55
M 186.85 309.25
Q 186.85 308.9 186.7 308.65 186.896484375 308.8955078125 187 309.25 186.9767578125 309.25 186.85 309.25 Z"/>
</g>

<g id="pashosh_0_Layer0_0_FILL">
<path fill="#000000" stroke="none" d="
M -19.45 271.75
Q -19.4 271.75 -19.35 271.75
L -18.25 272 -18.95 271.9
Q -19.25 271.8 -19.45 271.75 -20.7 271.55 -21.5 271.7 -24.3 272.3 -21.95 276.4
L -10.85 277.15 31.4 252.7
Q 33.8 252.7 38.6 252.55 48.25 252.2 60.3 251.25 72.35 250.35 82.75 248.8
L 90.7 247.55
Q 92.5 249 96.45 251.35 104.2 256 114.4 260.1 124.6 264.3 140.55 266.7 145.5 267.5 150.45 267.95
L 154.45 268.3
Q 163.7 266.8 181.05 262.55 198.4 258.25 209.1 252.85 219.75 247.5 225.3 243.05 230.9 238.6 242.85 226.9 254.8 215.2 259.55 199.05 264.3 182.9 268.05 166.2 269.9 157.85 270.8 152.7
L 272.8 147.15
Q 275.35 140.45 277.7 134.7 285.3 116.2 288.6 113.4 298.35 105.1 318.95 102.3 328.75 100.95 342.2 102.1 343.6 102.2 350.35 102.9 353.55 103.25 353.8 103.05
L 351.25 100.95
Q 348 98.5 337.8 96.15 327.65 93.8 319.7 93.4 311.8 92.9 301.65 93.45 291.55 93.9 285.6 94.85
L 282.45 92.8
Q 278.5 90.25 274.2 88.15 260.7 81.5 250 81.5 236.7 81.5 225.05 86.55 212.6 91.9 205.55 101.5 199.6 109.9 196 117.65 194.9 120.1 194.2 122.2
L 193.7 123.75 178.25 130.75
Q 161.4 138.7 154.45 143.8 147.45 148.9 139.15 155.7 135 159.15 132.2 161.55 123.85 165.45 113.3 170.9 92.2 181.85 81.05 189.75 72.25 196 68.15 200.05 64.1 204.1 63.5 203.25 62.85 202.4 61.4 204.6 59.95 206.8 46.65 217.9 39.95 223.45 33.6 228.25
L 42.5 229.75 33.5 234.4
Q 22.7 240.05 13.45 245.05 -16.2 261.15 -18.95 265.35 -21.75 269.5 -20.3 271.15 -19.95 271.5 -19.45 271.75 Z"/>
</g>

<g id="dot_1_Layer0_0_FILL">
<path fill="#84A418" stroke="none" d="
M 33.55 17.55
Q 33.55 10.9 28.85 6.2 24.15 1.55 17.55 1.55 10.9 1.55 6.2 6.2 1.55 10.9 1.55 17.55 1.55 24.15 6.2 28.85 10.9 33.55 17.55 33.55 24.15 33.55 28.85 28.85 33.55 24.15 33.55 17.55 Z"/>
</g>

<path id="dot_0_Layer0_0_1_STROKES" stroke="#000000" stroke-width="6" stroke-linejoin="round" stroke-linecap="round" fill="none" d="
M 28.65 17.45
Q 28.65 22.1 25.35 25.35 22.1 28.65 17.45 28.65 12.8 28.65 9.5 25.35 6.25 22.1 6.25 17.45 6.25 12.8 9.5 9.5 12.8 6.25 17.45 6.25 22.1 6.25 25.35 9.5 28.65 12.8 28.65 17.45 Z"/>

<path id="dot_1_Layer0_0_1_STROKES" stroke="#000000" stroke-width="6" stroke-linejoin="round" stroke-linecap="round" fill="none" d="
M 40.45 17.55
Q 40.45 27 33.65 33.65 27 40.45 17.55 40.45 8.1 40.45 1.4 33.65 -5.3 27 -5.3 17.55 -5.3 8.1 1.4 1.4 8.1 -5.3 17.55 -5.3 27 -5.3 33.65 1.4 40.45 8.1 40.45 17.55 Z"/>
</defs>

<g transform="matrix( 1, 0, 0, 1, 0,0) ">
<use xlink:href="#Layer3_0_FILL"/>
</g>

<g transform="matrix( -0.1712646484375, 0, 0, 0.1712646484375, 329.75,126.25) ">
<g transform="matrix( 1, 0, 0, 1, 0,0) ">
<use xlink:href="#pigeon_0_Layer0_0_FILL"/>
</g>
</g>

<g transform="matrix( -0.2046661376953125, 0, 0, 0.2045745849609375, 465.8,118.45) ">
<g transform="matrix( 1, 0, 0, 1, 0,0) ">
<use xlink:href="#crow_0_Layer0_0_FILL"/>
</g>
</g>

<g transform="matrix( -0.1879730224609375, 0, 0, 0.1875457763671875, 128.5,182.55) ">
<g transform="matrix( 1, 0, 0, 1, 0,0) ">
<use xlink:href="#sparrow_0_Layer1_0_FILL"/>
</g>

<g transform="matrix( 1, 0, 0, 1, 0,0) ">
<use xlink:href="#sparrow_0_Layer0_0_FILL"/>
</g>
</g>

<g transform="matrix( -0.239654541015625, 0, 0, 0.2653656005859375, 602.4,69.95) ">
<g transform="matrix( 1, 0, 0, 1, 0,0) ">
<use xlink:href="#duck_0_Layer0_0_FILL"/>
</g>

<g transform="matrix( 1, 0, 0, 1, 0,0) ">
<use xlink:href="#duck_0_Layer0_1_FILL"/>
</g>
</g>

<g transform="matrix( -0.392669677734375, 0, 0, 0.4173583984375, 765.25,4.45) ">
<g transform="matrix( 1, 0, 0, 1, 0,0) ">
<use xlink:href="#goose_0_Layer1_0_FILL"/>
</g>
</g>

<g transform="matrix( -0.257415771484375, 0, 0, 0.2572021484375, 211,159.5) ">
<g transform="matrix( 1, 0, 0, 1, 0,0) ">
<use xlink:href="#myna_0_Layer1_0_FILL"/>
</g>

<g transform="matrix( 1, 0, 0, 1, 0,0) ">
<use xlink:href="#myna_0_Layer0_0_FILL"/>
</g>
</g>

<g transform="matrix( -0.115386962890625, 0, 0, 0.115386962890625, 45.75,182.95) ">
<g transform="matrix( 1, 0, 0, 1, 0,0) ">
<use xlink:href="#pashosh_0_Layer1_0_FILL"/>
</g>

<g transform="matrix( 1, 0, 0, 1, 0,0) ">
<use xlink:href="#pashosh_0_Layer0_0_FILL"/>
</g>
</g>

<g transform="matrix( 0.79998779296875, 0, 0, 0.79998779296875, 12.95,238.45) ">
<g transform="matrix( 1, 0, 0, 1, 0,0) ">
<use xlink:href="#dot_0_Layer0_0_1_STROKES"/>
</g>
</g>

<g transform="matrix( 0.79998779296875, 0, 0, 0.79998779296875, 662.9,238.45) ">
<g transform="matrix( 1, 0, 0, 1, 0,0) ">
<use xlink:href="#dot_0_Layer0_0_1_STROKES"/>
</g>
</g>

<g transform="matrix( 0.79998779296875, 0, 0, 0.79998779296875, 507.7,238.45) ">
<g transform="matrix( 1, 0, 0, 1, 0,0) ">
<use xlink:href="#dot_1_Layer0_0_FILL"/>

<use xlink:href="#dot_1_Layer0_0_1_STROKES"/>
</g>
</g>

<g transform="matrix( 0.79998779296875, 0, 0, 0.79998779296875, 372.75,238.45) ">
<g transform="matrix( 1, 0, 0, 1, 0,0) ">
<use xlink:href="#dot_0_Layer0_0_1_STROKES"/>
</g>
</g>

<g transform="matrix( 0.79998779296875, 0, 0, 0.79998779296875, 257.8,238.45) ">
<g transform="matrix( 1, 0, 0, 1, 0,0) ">
<use xlink:href="#dot_0_Layer0_0_1_STROKES"/>
</g>
</g>

<g transform="matrix( 0.79998779296875, 0, 0, 0.79998779296875, 162.85,238.45) ">
<g transform="matrix( 1, 0, 0, 1, 0,0) ">
<use xlink:href="#dot_0_Layer0_0_1_STROKES"/>
</g>
</g>

<g transform="matrix( 0.79998779296875, 0, 0, 0.79998779296875, 77.9,238.45) ">
<g transform="matrix( 1, 0, 0, 1, 0,0) ">
<use xlink:href="#dot_0_Layer0_0_1_STROKES"/>
</g>
</g>
</svg>
